<mxfile host="app.diagrams.net" modified="2023-05-28T04:23:08.548Z" agent="Mozilla/5.0 (Windows NT 10.0; Win64; x64) AppleWebKit/537.36 (KHTML, like Gecko) Chrome/113.0.0.0 Safari/537.36" etag="0Ut_xQ9iNNkOy5uAy08U" version="21.3.4" type="device">
  <diagram name="第 1 页" id="XPYbZQhi9mjwf-wilqzZ">
    <mxGraphModel dx="1728" dy="937" grid="1" gridSize="10" guides="1" tooltips="1" connect="1" arrows="1" fold="1" page="1" pageScale="1" pageWidth="827" pageHeight="1169" math="0" shadow="0">
      <root>
        <mxCell id="0" />
        <mxCell id="1" parent="0" />
        <mxCell id="UySVTstzkcOTc-2BHn4s-1" value="&lt;i&gt;Shape&lt;/i&gt;" style="swimlane;fontStyle=1;align=center;verticalAlign=top;childLayout=stackLayout;horizontal=1;startSize=26;horizontalStack=0;resizeParent=1;resizeParentMax=0;resizeLast=0;collapsible=1;marginBottom=0;whiteSpace=wrap;html=1;" vertex="1" parent="1">
          <mxGeometry x="334" y="496" width="160" height="74" as="geometry" />
        </mxCell>
        <mxCell id="UySVTstzkcOTc-2BHn4s-3" value="" style="line;strokeWidth=1;fillColor=none;align=left;verticalAlign=middle;spacingTop=-1;spacingLeft=3;spacingRight=3;rotatable=0;labelPosition=right;points=[];portConstraint=eastwest;strokeColor=inherit;" vertex="1" parent="UySVTstzkcOTc-2BHn4s-1">
          <mxGeometry y="26" width="160" height="8" as="geometry" />
        </mxCell>
        <mxCell id="UySVTstzkcOTc-2BHn4s-4" value="+ BoundingBox()&lt;br&gt;+ CreateManlpulator()" style="text;strokeColor=none;fillColor=none;align=left;verticalAlign=top;spacingLeft=4;spacingRight=4;overflow=hidden;rotatable=0;points=[[0,0.5],[1,0.5]];portConstraint=eastwest;whiteSpace=wrap;html=1;" vertex="1" parent="UySVTstzkcOTc-2BHn4s-1">
          <mxGeometry y="34" width="160" height="40" as="geometry" />
        </mxCell>
        <mxCell id="UySVTstzkcOTc-2BHn4s-5" value="DrawingEditor&lt;br&gt;" style="html=1;whiteSpace=wrap;" vertex="1" parent="1">
          <mxGeometry x="110" y="520" width="110" height="50" as="geometry" />
        </mxCell>
        <mxCell id="UySVTstzkcOTc-2BHn4s-6" value="1" style="endArrow=open;html=1;endSize=12;startArrow=diamondThin;startSize=14;startFill=0;align=left;verticalAlign=bottom;rounded=0;" edge="1" parent="1" source="UySVTstzkcOTc-2BHn4s-5" target="UySVTstzkcOTc-2BHn4s-4">
          <mxGeometry x="-1" y="3" relative="1" as="geometry">
            <mxPoint x="180" y="670" as="sourcePoint" />
            <mxPoint x="340" y="670" as="targetPoint" />
          </mxGeometry>
        </mxCell>
        <mxCell id="UySVTstzkcOTc-2BHn4s-7" value="Line" style="swimlane;fontStyle=1;align=center;verticalAlign=top;childLayout=stackLayout;horizontal=1;startSize=26;horizontalStack=0;resizeParent=1;resizeParentMax=0;resizeLast=0;collapsible=1;marginBottom=0;whiteSpace=wrap;html=1;" vertex="1" parent="1">
          <mxGeometry x="220" y="650" width="160" height="74" as="geometry" />
        </mxCell>
        <mxCell id="UySVTstzkcOTc-2BHn4s-9" value="" style="line;strokeWidth=1;fillColor=none;align=left;verticalAlign=middle;spacingTop=-1;spacingLeft=3;spacingRight=3;rotatable=0;labelPosition=right;points=[];portConstraint=eastwest;strokeColor=inherit;" vertex="1" parent="UySVTstzkcOTc-2BHn4s-7">
          <mxGeometry y="26" width="160" height="8" as="geometry" />
        </mxCell>
        <mxCell id="UySVTstzkcOTc-2BHn4s-10" value="+ BoundingBox()&lt;br&gt;+ CreateManlpulator()" style="text;strokeColor=none;fillColor=none;align=left;verticalAlign=top;spacingLeft=4;spacingRight=4;overflow=hidden;rotatable=0;points=[[0,0.5],[1,0.5]];portConstraint=eastwest;whiteSpace=wrap;html=1;" vertex="1" parent="UySVTstzkcOTc-2BHn4s-7">
          <mxGeometry y="34" width="160" height="40" as="geometry" />
        </mxCell>
        <mxCell id="UySVTstzkcOTc-2BHn4s-11" value="Extends" style="endArrow=block;endSize=16;endFill=0;html=1;rounded=0;entryX=0.5;entryY=0;entryDx=0;entryDy=0;exitX=0.438;exitY=0.98;exitDx=0;exitDy=0;exitPerimeter=0;" edge="1" parent="1" source="UySVTstzkcOTc-2BHn4s-4" target="UySVTstzkcOTc-2BHn4s-7">
          <mxGeometry width="160" relative="1" as="geometry">
            <mxPoint x="470" y="660" as="sourcePoint" />
            <mxPoint x="630" y="660" as="targetPoint" />
          </mxGeometry>
        </mxCell>
        <mxCell id="UySVTstzkcOTc-2BHn4s-12" value="TextShape&lt;br&gt;" style="swimlane;fontStyle=1;align=center;verticalAlign=top;childLayout=stackLayout;horizontal=1;startSize=26;horizontalStack=0;resizeParent=1;resizeParentMax=0;resizeLast=0;collapsible=1;marginBottom=0;whiteSpace=wrap;html=1;" vertex="1" parent="1">
          <mxGeometry x="460" y="650" width="160" height="110" as="geometry" />
        </mxCell>
        <mxCell id="UySVTstzkcOTc-2BHn4s-13" value="+ Textview" style="text;strokeColor=none;fillColor=none;align=left;verticalAlign=top;spacingLeft=4;spacingRight=4;overflow=hidden;rotatable=0;points=[[0,0.5],[1,0.5]];portConstraint=eastwest;whiteSpace=wrap;html=1;" vertex="1" parent="UySVTstzkcOTc-2BHn4s-12">
          <mxGeometry y="26" width="160" height="26" as="geometry" />
        </mxCell>
        <mxCell id="UySVTstzkcOTc-2BHn4s-14" value="" style="line;strokeWidth=1;fillColor=none;align=left;verticalAlign=middle;spacingTop=-1;spacingLeft=3;spacingRight=3;rotatable=0;labelPosition=right;points=[];portConstraint=eastwest;strokeColor=inherit;" vertex="1" parent="UySVTstzkcOTc-2BHn4s-12">
          <mxGeometry y="52" width="160" height="8" as="geometry" />
        </mxCell>
        <mxCell id="UySVTstzkcOTc-2BHn4s-15" value="+ BoundingBox()&lt;br&gt;+ CreateManlpulator()" style="text;strokeColor=none;fillColor=none;align=left;verticalAlign=top;spacingLeft=4;spacingRight=4;overflow=hidden;rotatable=0;points=[[0,0.5],[1,0.5]];portConstraint=eastwest;whiteSpace=wrap;html=1;" vertex="1" parent="UySVTstzkcOTc-2BHn4s-12">
          <mxGeometry y="60" width="160" height="50" as="geometry" />
        </mxCell>
        <mxCell id="UySVTstzkcOTc-2BHn4s-16" value="Extends" style="endArrow=block;endSize=16;endFill=0;html=1;rounded=0;entryX=0.5;entryY=0;entryDx=0;entryDy=0;exitX=0.438;exitY=0.98;exitDx=0;exitDy=0;exitPerimeter=0;" edge="1" parent="1" target="UySVTstzkcOTc-2BHn4s-12">
          <mxGeometry width="160" relative="1" as="geometry">
            <mxPoint x="414" y="579" as="sourcePoint" />
            <mxPoint x="310" y="660" as="targetPoint" />
          </mxGeometry>
        </mxCell>
        <mxCell id="UySVTstzkcOTc-2BHn4s-17" value="TextView" style="swimlane;fontStyle=1;align=center;verticalAlign=top;childLayout=stackLayout;horizontal=1;startSize=26;horizontalStack=0;resizeParent=1;resizeParentMax=0;resizeLast=0;collapsible=1;marginBottom=0;whiteSpace=wrap;html=1;" vertex="1" parent="1">
          <mxGeometry x="835" y="496" width="160" height="60" as="geometry" />
        </mxCell>
        <mxCell id="UySVTstzkcOTc-2BHn4s-19" value="" style="line;strokeWidth=1;fillColor=none;align=left;verticalAlign=middle;spacingTop=-1;spacingLeft=3;spacingRight=3;rotatable=0;labelPosition=right;points=[];portConstraint=eastwest;strokeColor=inherit;" vertex="1" parent="UySVTstzkcOTc-2BHn4s-17">
          <mxGeometry y="26" width="160" height="8" as="geometry" />
        </mxCell>
        <mxCell id="UySVTstzkcOTc-2BHn4s-20" value="+ GetExtent()" style="text;strokeColor=none;fillColor=none;align=left;verticalAlign=top;spacingLeft=4;spacingRight=4;overflow=hidden;rotatable=0;points=[[0,0.5],[1,0.5]];portConstraint=eastwest;whiteSpace=wrap;html=1;" vertex="1" parent="UySVTstzkcOTc-2BHn4s-17">
          <mxGeometry y="34" width="160" height="26" as="geometry" />
        </mxCell>
        <mxCell id="UySVTstzkcOTc-2BHn4s-21" value="1" style="endArrow=open;html=1;endSize=12;startArrow=diamondThin;startSize=14;startFill=1;align=left;verticalAlign=bottom;rounded=0;exitX=1;exitY=0.5;exitDx=0;exitDy=0;entryX=0.023;entryY=-0.173;entryDx=0;entryDy=0;entryPerimeter=0;" edge="1" parent="1" source="UySVTstzkcOTc-2BHn4s-13" target="UySVTstzkcOTc-2BHn4s-20">
          <mxGeometry x="-1" y="3" relative="1" as="geometry">
            <mxPoint x="810" y="740" as="sourcePoint" />
            <mxPoint x="970" y="740" as="targetPoint" />
          </mxGeometry>
        </mxCell>
        <mxCell id="UySVTstzkcOTc-2BHn4s-22" value="1" style="endArrow=open;html=1;endSize=12;startArrow=diamondThin;startSize=14;startFill=0;align=left;verticalAlign=bottom;rounded=0;" edge="1" parent="1" target="UySVTstzkcOTc-2BHn4s-24">
          <mxGeometry x="-1" y="3" relative="1" as="geometry">
            <mxPoint x="630" y="720" as="sourcePoint" />
            <mxPoint x="810" y="704.58" as="targetPoint" />
          </mxGeometry>
        </mxCell>
        <mxCell id="UySVTstzkcOTc-2BHn4s-23" value="1" style="endArrow=open;html=1;endSize=12;startArrow=diamondThin;startSize=14;startFill=0;align=left;verticalAlign=bottom;rounded=0;" edge="1" parent="1" target="UySVTstzkcOTc-2BHn4s-25">
          <mxGeometry x="-1" y="3" relative="1" as="geometry">
            <mxPoint x="630" y="745" as="sourcePoint" />
            <mxPoint x="830" y="760" as="targetPoint" />
            <Array as="points">
              <mxPoint x="620" y="750" />
            </Array>
          </mxGeometry>
        </mxCell>
        <mxCell id="UySVTstzkcOTc-2BHn4s-24" value="return text-&amp;gt;GetExtent()" style="html=1;whiteSpace=wrap;" vertex="1" parent="1">
          <mxGeometry x="840" y="674" width="110" height="50" as="geometry" />
        </mxCell>
        <mxCell id="UySVTstzkcOTc-2BHn4s-25" value="return new TextManlpulator;" style="html=1;whiteSpace=wrap;" vertex="1" parent="1">
          <mxGeometry x="840" y="750" width="110" height="50" as="geometry" />
        </mxCell>
        <mxCell id="UySVTstzkcOTc-2BHn4s-28" value="Client" style="html=1;whiteSpace=wrap;" vertex="1" parent="1">
          <mxGeometry x="140" y="954" width="110" height="50" as="geometry" />
        </mxCell>
        <mxCell id="UySVTstzkcOTc-2BHn4s-30" value="&lt;i&gt;Target&lt;/i&gt;" style="swimlane;fontStyle=1;align=center;verticalAlign=top;childLayout=stackLayout;horizontal=1;startSize=26;horizontalStack=0;resizeParent=1;resizeParentMax=0;resizeLast=0;collapsible=1;marginBottom=0;whiteSpace=wrap;html=1;" vertex="1" parent="1">
          <mxGeometry x="360" y="940" width="160" height="60" as="geometry" />
        </mxCell>
        <mxCell id="UySVTstzkcOTc-2BHn4s-32" value="" style="line;strokeWidth=1;fillColor=none;align=left;verticalAlign=middle;spacingTop=-1;spacingLeft=3;spacingRight=3;rotatable=0;labelPosition=right;points=[];portConstraint=eastwest;strokeColor=inherit;" vertex="1" parent="UySVTstzkcOTc-2BHn4s-30">
          <mxGeometry y="26" width="160" height="8" as="geometry" />
        </mxCell>
        <mxCell id="UySVTstzkcOTc-2BHn4s-33" value="+ Request()" style="text;strokeColor=none;fillColor=none;align=left;verticalAlign=top;spacingLeft=4;spacingRight=4;overflow=hidden;rotatable=0;points=[[0,0.5],[1,0.5]];portConstraint=eastwest;whiteSpace=wrap;html=1;" vertex="1" parent="UySVTstzkcOTc-2BHn4s-30">
          <mxGeometry y="34" width="160" height="26" as="geometry" />
        </mxCell>
        <mxCell id="UySVTstzkcOTc-2BHn4s-34" value="&lt;i&gt;Adaptee&lt;/i&gt;" style="swimlane;fontStyle=1;align=center;verticalAlign=top;childLayout=stackLayout;horizontal=1;startSize=26;horizontalStack=0;resizeParent=1;resizeParentMax=0;resizeLast=0;collapsible=1;marginBottom=0;whiteSpace=wrap;html=1;" vertex="1" parent="1">
          <mxGeometry x="640" y="940" width="160" height="60" as="geometry" />
        </mxCell>
        <mxCell id="UySVTstzkcOTc-2BHn4s-36" value="" style="line;strokeWidth=1;fillColor=none;align=left;verticalAlign=middle;spacingTop=-1;spacingLeft=3;spacingRight=3;rotatable=0;labelPosition=right;points=[];portConstraint=eastwest;strokeColor=inherit;" vertex="1" parent="UySVTstzkcOTc-2BHn4s-34">
          <mxGeometry y="26" width="160" height="8" as="geometry" />
        </mxCell>
        <mxCell id="UySVTstzkcOTc-2BHn4s-37" value="+ SpeciffcRequest()" style="text;strokeColor=none;fillColor=none;align=left;verticalAlign=top;spacingLeft=4;spacingRight=4;overflow=hidden;rotatable=0;points=[[0,0.5],[1,0.5]];portConstraint=eastwest;whiteSpace=wrap;html=1;" vertex="1" parent="UySVTstzkcOTc-2BHn4s-34">
          <mxGeometry y="34" width="160" height="26" as="geometry" />
        </mxCell>
        <mxCell id="UySVTstzkcOTc-2BHn4s-38" value="Extends" style="endArrow=block;endSize=16;endFill=0;html=1;rounded=0;entryX=0.33;entryY=0.981;entryDx=0;entryDy=0;entryPerimeter=0;" edge="1" parent="1" source="UySVTstzkcOTc-2BHn4s-40" target="UySVTstzkcOTc-2BHn4s-33">
          <mxGeometry width="160" relative="1" as="geometry">
            <mxPoint x="540" y="1150" as="sourcePoint" />
            <mxPoint x="820" y="1140" as="targetPoint" />
          </mxGeometry>
        </mxCell>
        <mxCell id="UySVTstzkcOTc-2BHn4s-39" value="Extends" style="endArrow=block;endSize=16;endFill=0;html=1;rounded=0;exitX=0.75;exitY=0;exitDx=0;exitDy=0;" edge="1" parent="1" source="UySVTstzkcOTc-2BHn4s-40" target="UySVTstzkcOTc-2BHn4s-37">
          <mxGeometry width="160" relative="1" as="geometry">
            <mxPoint x="670" y="1150" as="sourcePoint" />
            <mxPoint x="830" y="1150" as="targetPoint" />
          </mxGeometry>
        </mxCell>
        <mxCell id="UySVTstzkcOTc-2BHn4s-40" value="Adapter" style="swimlane;fontStyle=1;align=center;verticalAlign=top;childLayout=stackLayout;horizontal=1;startSize=26;horizontalStack=0;resizeParent=1;resizeParentMax=0;resizeLast=0;collapsible=1;marginBottom=0;whiteSpace=wrap;html=1;" vertex="1" parent="1">
          <mxGeometry x="530" y="1180" width="160" height="60" as="geometry" />
        </mxCell>
        <mxCell id="UySVTstzkcOTc-2BHn4s-42" value="" style="line;strokeWidth=1;fillColor=none;align=left;verticalAlign=middle;spacingTop=-1;spacingLeft=3;spacingRight=3;rotatable=0;labelPosition=right;points=[];portConstraint=eastwest;strokeColor=inherit;" vertex="1" parent="UySVTstzkcOTc-2BHn4s-40">
          <mxGeometry y="26" width="160" height="8" as="geometry" />
        </mxCell>
        <mxCell id="UySVTstzkcOTc-2BHn4s-43" value="+ Request()" style="text;strokeColor=none;fillColor=none;align=left;verticalAlign=top;spacingLeft=4;spacingRight=4;overflow=hidden;rotatable=0;points=[[0,0.5],[1,0.5]];portConstraint=eastwest;whiteSpace=wrap;html=1;" vertex="1" parent="UySVTstzkcOTc-2BHn4s-40">
          <mxGeometry y="34" width="160" height="26" as="geometry" />
        </mxCell>
        <mxCell id="UySVTstzkcOTc-2BHn4s-44" value="1" style="endArrow=open;html=1;endSize=12;startArrow=diamondThin;startSize=14;startFill=0;align=left;verticalAlign=bottom;rounded=0;" edge="1" parent="1" source="UySVTstzkcOTc-2BHn4s-28">
          <mxGeometry x="-1" y="3" relative="1" as="geometry">
            <mxPoint x="150" y="1050" as="sourcePoint" />
            <mxPoint x="360" y="979" as="targetPoint" />
          </mxGeometry>
        </mxCell>
        <mxCell id="UySVTstzkcOTc-2BHn4s-45" value="" style="endArrow=block;dashed=1;endFill=0;endSize=12;html=1;rounded=0;exitX=1;exitY=0.5;exitDx=0;exitDy=0;" edge="1" parent="1" source="UySVTstzkcOTc-2BHn4s-43" target="UySVTstzkcOTc-2BHn4s-46">
          <mxGeometry width="160" relative="1" as="geometry">
            <mxPoint x="780" y="1240" as="sourcePoint" />
            <mxPoint x="940" y="1230" as="targetPoint" />
          </mxGeometry>
        </mxCell>
        <mxCell id="UySVTstzkcOTc-2BHn4s-46" value="SpecifficReques()" style="html=1;whiteSpace=wrap;" vertex="1" parent="1">
          <mxGeometry x="885" y="1202" width="110" height="50" as="geometry" />
        </mxCell>
        <mxCell id="UySVTstzkcOTc-2BHn4s-47" value="Class Adapter&lt;br&gt;" style="shape=umlFrame;whiteSpace=wrap;html=1;pointerEvents=0;" vertex="1" parent="1">
          <mxGeometry x="100" y="892" width="990" height="428" as="geometry" />
        </mxCell>
        <mxCell id="UySVTstzkcOTc-2BHn4s-48" value="Client" style="html=1;whiteSpace=wrap;" vertex="1" parent="1">
          <mxGeometry x="110" y="1530" width="110" height="50" as="geometry" />
        </mxCell>
        <mxCell id="UySVTstzkcOTc-2BHn4s-49" value="&lt;i&gt;Target&lt;/i&gt;" style="swimlane;fontStyle=1;align=center;verticalAlign=top;childLayout=stackLayout;horizontal=1;startSize=26;horizontalStack=0;resizeParent=1;resizeParentMax=0;resizeLast=0;collapsible=1;marginBottom=0;whiteSpace=wrap;html=1;" vertex="1" parent="1">
          <mxGeometry x="350" y="1520" width="160" height="60" as="geometry" />
        </mxCell>
        <mxCell id="UySVTstzkcOTc-2BHn4s-50" value="" style="line;strokeWidth=1;fillColor=none;align=left;verticalAlign=middle;spacingTop=-1;spacingLeft=3;spacingRight=3;rotatable=0;labelPosition=right;points=[];portConstraint=eastwest;strokeColor=inherit;" vertex="1" parent="UySVTstzkcOTc-2BHn4s-49">
          <mxGeometry y="26" width="160" height="8" as="geometry" />
        </mxCell>
        <mxCell id="UySVTstzkcOTc-2BHn4s-51" value="+ Request()" style="text;strokeColor=none;fillColor=none;align=left;verticalAlign=top;spacingLeft=4;spacingRight=4;overflow=hidden;rotatable=0;points=[[0,0.5],[1,0.5]];portConstraint=eastwest;whiteSpace=wrap;html=1;" vertex="1" parent="UySVTstzkcOTc-2BHn4s-49">
          <mxGeometry y="34" width="160" height="26" as="geometry" />
        </mxCell>
        <mxCell id="UySVTstzkcOTc-2BHn4s-52" value="&lt;i&gt;Adaptee&lt;/i&gt;" style="swimlane;fontStyle=1;align=center;verticalAlign=top;childLayout=stackLayout;horizontal=1;startSize=26;horizontalStack=0;resizeParent=1;resizeParentMax=0;resizeLast=0;collapsible=1;marginBottom=0;whiteSpace=wrap;html=1;" vertex="1" parent="1">
          <mxGeometry x="630" y="1560" width="160" height="60" as="geometry" />
        </mxCell>
        <mxCell id="UySVTstzkcOTc-2BHn4s-53" value="" style="line;strokeWidth=1;fillColor=none;align=left;verticalAlign=middle;spacingTop=-1;spacingLeft=3;spacingRight=3;rotatable=0;labelPosition=right;points=[];portConstraint=eastwest;strokeColor=inherit;" vertex="1" parent="UySVTstzkcOTc-2BHn4s-52">
          <mxGeometry y="26" width="160" height="8" as="geometry" />
        </mxCell>
        <mxCell id="UySVTstzkcOTc-2BHn4s-54" value="+ SpeciffcRequest()" style="text;strokeColor=none;fillColor=none;align=left;verticalAlign=top;spacingLeft=4;spacingRight=4;overflow=hidden;rotatable=0;points=[[0,0.5],[1,0.5]];portConstraint=eastwest;whiteSpace=wrap;html=1;" vertex="1" parent="UySVTstzkcOTc-2BHn4s-52">
          <mxGeometry y="34" width="160" height="26" as="geometry" />
        </mxCell>
        <mxCell id="UySVTstzkcOTc-2BHn4s-55" value="adaptee-&amp;gt;SpecifficReques()" style="html=1;whiteSpace=wrap;" vertex="1" parent="1">
          <mxGeometry x="650" y="1770" width="110" height="50" as="geometry" />
        </mxCell>
        <mxCell id="UySVTstzkcOTc-2BHn4s-59" value="1" style="endArrow=open;html=1;endSize=12;startArrow=diamondThin;startSize=14;startFill=0;align=left;verticalAlign=bottom;rounded=0;entryX=-0.003;entryY=0.122;entryDx=0;entryDy=0;entryPerimeter=0;exitX=1;exitY=0.5;exitDx=0;exitDy=0;" edge="1" parent="1" source="UySVTstzkcOTc-2BHn4s-48" target="UySVTstzkcOTc-2BHn4s-51">
          <mxGeometry x="-1" y="3" relative="1" as="geometry">
            <mxPoint x="140" y="1580" as="sourcePoint" />
            <mxPoint x="300" y="1580" as="targetPoint" />
          </mxGeometry>
        </mxCell>
        <mxCell id="UySVTstzkcOTc-2BHn4s-60" value="Adapter" style="swimlane;fontStyle=1;align=center;verticalAlign=top;childLayout=stackLayout;horizontal=1;startSize=26;horizontalStack=0;resizeParent=1;resizeParentMax=0;resizeLast=0;collapsible=1;marginBottom=0;whiteSpace=wrap;html=1;" vertex="1" parent="1">
          <mxGeometry x="350" y="1722" width="160" height="86" as="geometry" />
        </mxCell>
        <mxCell id="UySVTstzkcOTc-2BHn4s-61" value="+ Adaptee" style="text;strokeColor=none;fillColor=none;align=left;verticalAlign=top;spacingLeft=4;spacingRight=4;overflow=hidden;rotatable=0;points=[[0,0.5],[1,0.5]];portConstraint=eastwest;whiteSpace=wrap;html=1;" vertex="1" parent="UySVTstzkcOTc-2BHn4s-60">
          <mxGeometry y="26" width="160" height="26" as="geometry" />
        </mxCell>
        <mxCell id="UySVTstzkcOTc-2BHn4s-62" value="" style="line;strokeWidth=1;fillColor=none;align=left;verticalAlign=middle;spacingTop=-1;spacingLeft=3;spacingRight=3;rotatable=0;labelPosition=right;points=[];portConstraint=eastwest;strokeColor=inherit;" vertex="1" parent="UySVTstzkcOTc-2BHn4s-60">
          <mxGeometry y="52" width="160" height="8" as="geometry" />
        </mxCell>
        <mxCell id="UySVTstzkcOTc-2BHn4s-63" value="+ Request()" style="text;strokeColor=none;fillColor=none;align=left;verticalAlign=top;spacingLeft=4;spacingRight=4;overflow=hidden;rotatable=0;points=[[0,0.5],[1,0.5]];portConstraint=eastwest;whiteSpace=wrap;html=1;" vertex="1" parent="UySVTstzkcOTc-2BHn4s-60">
          <mxGeometry y="60" width="160" height="26" as="geometry" />
        </mxCell>
        <mxCell id="UySVTstzkcOTc-2BHn4s-65" value="Extends" style="endArrow=block;endSize=16;endFill=0;html=1;rounded=0;" edge="1" parent="1" source="UySVTstzkcOTc-2BHn4s-60" target="UySVTstzkcOTc-2BHn4s-51">
          <mxGeometry width="160" relative="1" as="geometry">
            <mxPoint x="520" y="1720" as="sourcePoint" />
            <mxPoint x="950" y="1730" as="targetPoint" />
          </mxGeometry>
        </mxCell>
        <mxCell id="UySVTstzkcOTc-2BHn4s-66" value="1" style="endArrow=open;html=1;endSize=12;startArrow=diamondThin;startSize=14;startFill=1;align=left;verticalAlign=bottom;rounded=0;entryX=0;entryY=0.5;entryDx=0;entryDy=0;exitX=1.002;exitY=0.192;exitDx=0;exitDy=0;exitPerimeter=0;" edge="1" parent="1" source="UySVTstzkcOTc-2BHn4s-61" target="UySVTstzkcOTc-2BHn4s-54">
          <mxGeometry x="-1" y="3" relative="1" as="geometry">
            <mxPoint x="500" y="1750" as="sourcePoint" />
            <mxPoint x="660" y="1750" as="targetPoint" />
          </mxGeometry>
        </mxCell>
        <mxCell id="UySVTstzkcOTc-2BHn4s-68" value="adaptee" style="text;html=1;align=center;verticalAlign=middle;resizable=0;points=[];autosize=1;strokeColor=none;fillColor=none;" vertex="1" parent="1">
          <mxGeometry x="494" y="1680" width="70" height="30" as="geometry" />
        </mxCell>
        <mxCell id="UySVTstzkcOTc-2BHn4s-69" value="" style="endArrow=block;dashed=1;endFill=0;endSize=12;html=1;rounded=0;entryX=0;entryY=0.5;entryDx=0;entryDy=0;exitX=1;exitY=0.5;exitDx=0;exitDy=0;" edge="1" parent="1" source="UySVTstzkcOTc-2BHn4s-63" target="UySVTstzkcOTc-2BHn4s-55">
          <mxGeometry width="160" relative="1" as="geometry">
            <mxPoint x="330" y="1880" as="sourcePoint" />
            <mxPoint x="490" y="1880" as="targetPoint" />
          </mxGeometry>
        </mxCell>
        <mxCell id="UySVTstzkcOTc-2BHn4s-70" value="Instance Adapter" style="shape=umlFrame;whiteSpace=wrap;html=1;pointerEvents=0;" vertex="1" parent="1">
          <mxGeometry x="70" y="1455" width="830" height="465" as="geometry" />
        </mxCell>
      </root>
    </mxGraphModel>
  </diagram>
</mxfile>
